<?xml version="1.0" encoding="UTF-8" standalone="no"?>
<svg
   xmlns:dc="http://purl.org/dc/elements/1.1/"
   xmlns:cc="http://creativecommons.org/ns#"
   xmlns:rdf="http://www.w3.org/1999/02/22-rdf-syntax-ns#"
   xmlns:svg="http://www.w3.org/2000/svg"
   xmlns="http://www.w3.org/2000/svg"
   id="svg1971"
   version="1.1"
   viewBox="0 0 34.991226 32.263126"
   height="32.263126mm"
   width="34.991226mm">
  <defs
     id="defs1965" />
  <metadata
     id="metadata1968">
    <rdf:RDF>
      <cc:Work
         rdf:about="">
        <dc:format>image/svg+xml</dc:format>
        <dc:type
           rdf:resource="http://purl.org/dc/dcmitype/StillImage" />
        <dc:title></dc:title>
      </cc:Work>
    </rdf:RDF>
  </metadata>
  <g
     transform="translate(-89.093672,-212.83272)"
     id="layer1">
    <path
       d="m 89.09404,225.9053 c 0,-3.01731 -3.6e-4,-6.03427 3.5e-4,-9.05157 3.5e-4,-0.76906 0.002,-0.76906 0.74789,-0.77118 1.27564,-0.004 1.26753,-0.004 1.27776,-1.29399 0.01,-1.13876 -0.19085,-1.02446 1.07668,-1.24177 2.57457,-0.44027 5.1629,-0.76412 7.78192,-0.70591 2.17841,0.0487 4.33247,0.25576 6.33624,1.22202 0.18698,0.09 0.35102,0.0706 0.53164,-0.0162 1.84468,-0.88335 3.8294,-1.12007 5.83424,-1.19486 2.99402,-0.11218 5.94889,0.28434 8.89106,0.79799 0.34713,0.0607 0.50024,0.22013 0.48789,0.57467 -0.0152,0.43992 0.0127,0.88195 -0.007,1.32151 -0.0173,0.38523 0.11465,0.57291 0.52352,0.54045 0.26953,-0.0219 0.54434,0.018 0.8128,-0.008 0.48155,-0.0476 0.65264,0.1337 0.64523,0.62935 -0.0243,1.76248 -0.0212,3.52531 -0.006,5.28814 0.0162,1.84644 0.004,3.69253 0.0395,5.53967 0.0508,2.60527 -0.0265,5.2137 -0.037,7.82073 -7.9e-4,0.31927 -0.12736,0.40781 -0.42298,0.4064 -1.88137,-0.007 -3.76273,-0.007 -5.6441,-0.001 -0.30056,7.1e-4 -0.49071,-0.0808 -0.48789,-0.42298 0.007,-0.77963 0.004,-1.55892 0.007,-2.33856 0.001,-0.40358 0.18838,-0.57785 0.60642,-0.53023 0.7232,0.0819 1.45486,0.10372 2.17241,0.21732 0.49918,0.0794 0.55527,-0.11889 0.55174,-0.5394 -0.0166,-2.06693 -0.007,-4.1342 -0.007,-6.20113 0,-3.49144 -0.01,-6.98324 0.01,-10.47468 0.003,-0.51999 -0.13123,-0.72425 -0.68051,-0.80927 -2.50013,-0.38523 -5.00697,-0.65158 -7.5385,-0.5588 -1.61185,0.0593 -3.2057,0.25753 -4.73322,0.83608 -0.45791,0.17322 -0.67416,0.41205 -0.64276,0.93098 0.0448,0.74331 -0.009,1.4919 0.0176,2.23626 0.0183,0.50589 -0.28116,0.53446 -0.65228,0.53481 -0.37853,3.7e-4 -0.71932,0.006 -0.70379,-0.53692 0.0226,-0.79622 -0.008,-1.59315 0.01,-2.38937 0.008,-0.35842 -0.13087,-0.56021 -0.45684,-0.69673 -1.13876,-0.4759 -2.33397,-0.70274 -3.55212,-0.82021 -3.008476,-0.28999 -5.985576,0.0145 -8.955606,0.48154 -0.42722,0.0674 -0.56409,0.23953 -0.56304,0.65828 0.01,5.62716 0.01,11.25432 0,16.88148 -6.88e-4,0.4131 0.11995,0.52528 0.53164,0.46496 0.6858,-0.1009 1.38218,-0.12912 2.07151,-0.21167 0.46179,-0.0554 0.70203,0.066 0.68298,0.58597 -0.0275,0.74437 -0.0159,1.49048 -0.007,2.2359 0.004,0.31539 -0.10972,0.46603 -0.44203,0.46496 -1.88137,-0.006 -3.76273,-0.009 -5.6441,0.003 -0.46037,0.003 -0.46496,-0.27693 -0.46461,-0.6036 0.002,-2.76261 0.001,-5.52556 0.001,-8.28817 0,-0.32208 0,-0.64417 3.6e-4,-0.9659"
       style="fill:#d9c196;fill-opacity:1;fill-rule:nonzero;stroke:none;stroke-width:0.03527778"
       id="path1141" />
    <path
       d="m 115.83283,226.85392 c -6.14821,0 -12.29642,0 -18.54271,0 0.38594,-0.38312 0.79022,-0.55351 1.15958,-0.76624 2.56787,-1.47884 5.14562,-2.94146 7.71173,-4.42312 0.31855,-0.1838 0.57185,-0.18874 0.8897,-0.006 2.89031,1.66546 5.78767,3.31858 8.68398,4.97416 0.0579,0.0332 0.12277,0.0547 0.1845,0.0815 -0.0289,0.0466 -0.0579,0.0935 -0.0868,0.14005"
       style="fill:#d9c196;fill-opacity:1;fill-rule:nonzero;stroke:none;stroke-width:0.03527778"
       id="path1143" />
    <path
       d="m 97.23191,235.37738 c 0,-1.4231 0.0117,-2.84621 -0.007,-4.26931 -0.006,-0.43392 0.13229,-0.61031 0.58137,-0.59796 0.84632,0.0236 1.69404,0.0166 2.54106,-0.003 0.32491,-0.007 0.45861,0.0928 0.45791,0.42863 -0.007,2.9651 -0.006,5.92984 3.4e-4,8.89423 3.5e-4,0.3609 -0.13088,0.51965 -0.50976,0.51153 -0.846316,-0.0173 -1.694386,-0.019 -2.540706,0.001 -0.4071,0.0102 -0.53058,-0.16192 -0.5274,-0.54398 0.0113,-1.47355 0.005,-2.94781 0.005,-4.42172"
       style="fill:#d9c196;fill-opacity:1;fill-rule:nonzero;stroke:none;stroke-width:0.03527778"
       id="path1145" />
    <path
       d="m 105.82488,235.53084 c 0,1.44039 -0.0138,2.88114 0.009,4.32153 0.006,0.38841 -0.12136,0.50059 -0.49319,0.49142 -0.84702,-0.0205 -1.69474,-0.0152 -2.54211,-0.004 -0.33973,0.005 -0.49178,-0.11677 -0.49107,-0.47131 0.007,-2.96616 0.006,-5.93161 0.001,-8.89741 -7.1e-4,-0.32067 0.12876,-0.4572 0.45473,-0.45367 0.84737,0.009 1.6951,0.0141 2.54176,-0.007 0.40887,-0.0102 0.52635,0.17074 0.52388,0.54681 -0.0106,1.49119 -0.005,2.98238 -0.004,4.47357"
       style="fill:#d9c196;fill-opacity:1;fill-rule:nonzero;stroke:none;stroke-width:0.03527778"
       id="path1147" />
    <path
       d="m 112.45287,235.38197 c 0,-1.49014 0.007,-2.97956 -0.006,-4.46934 -0.002,-0.28787 0.0896,-0.40041 0.37253,-0.39829 0.9144,0.006 1.8288,0.009 2.74285,-0.001 0.44662,-0.005 0.41628,0.29845 0.41628,0.5902 10e-4,2.47191 2.6e-4,4.94382 0,7.41539 0,0.45684 -0.01,0.9144 10e-4,1.37124 0.008,0.32562 -0.13546,0.45262 -0.4572,0.44909 -0.84596,-0.01 -1.69333,-0.0162 -2.53894,0.004 -0.40499,0.01 -0.5274,-0.15734 -0.52352,-0.54222 0.0138,-1.47285 0.005,-2.94569 0.005,-4.41854 -0.004,0 -0.008,0 -0.0123,0"
       style="fill:#d9c196;fill-opacity:1;fill-rule:nonzero;stroke:none;stroke-width:0.03527778"
       id="path1149" />
    <path
       d="m 110.90135,235.449 c 0,1.43862 -0.0138,2.87725 0.008,4.31623 0.007,0.45015 -0.15628,0.59337 -0.59302,0.57926 -0.79445,-0.0257 -1.59067,-0.0197 -2.38583,-0.003 -0.37924,0.008 -0.54998,-0.10654 -0.54857,-0.51682 0.0116,-2.92805 0.0116,-5.85646 3.4e-4,-8.78452 -0.002,-0.40287 0.15487,-0.53657 0.53869,-0.52916 0.82938,0.0166 1.65912,0.0201 2.48779,0.005 0.3803,-0.007 0.49953,0.15276 0.49671,0.51541 -0.0116,1.4725 -0.005,2.94499 -0.004,4.41749"
       style="fill:#d9c196;fill-opacity:1;fill-rule:nonzero;stroke:none;stroke-width:0.03527778"
       id="path1151" />
    <path
       d="m 106.53749,243.95235 c 4.28801,0 8.57567,-8e-4 12.86333,7.9e-4 0.63042,2.7e-4 0.69039,0.0829 0.65723,0.71014 -0.0145,0.27164 -0.11677,0.41169 -0.39123,0.41557 -0.13512,0.002 -0.27093,0.007 -0.4064,0.007 -8.50794,2.7e-4 -17.01589,0.002 -25.52383,-0.004 -0.30903,-2.6e-4 -0.71649,0.13229 -0.76235,-0.41311 -0.0505,-0.60148 0.0356,-0.71508 0.64876,-0.71543 4.30459,-10e-4 8.60954,-7.9e-4 12.91449,-10e-4"
       style="fill:#d9c196;fill-opacity:1;fill-rule:nonzero;stroke:none;stroke-width:0.03527778"
       id="path1153" />
    <path
       d="m 106.70118,227.18306 c 3.81211,0 7.62423,3.4e-4 11.43599,-3.5e-4 0.7419,-3.7e-4 0.7299,0.0116 0.71015,0.72601 -0.0109,0.4117 -0.24236,0.41805 -0.53129,0.41769 -1.82986,-6.8e-4 -3.65971,3.8e-4 -5.48922,0 -5.65856,0 -11.31746,0 -16.97602,-6.8e-4 -0.32209,0 -0.64453,-0.0187 -0.96591,-0.004 -0.40322,0.0183 -0.51152,-0.16721 -0.51964,-0.55245 -0.01,-0.45155 0.16193,-0.58949 0.59479,-0.58702 2.18545,0.012 4.37127,0.002 6.55672,10e-4 1.72826,-10e-4 3.45652,-3.5e-4 5.18443,-3.5e-4"
       style="fill:#d9c196;fill-opacity:1;fill-rule:nonzero;stroke:none;stroke-width:0.03527778"
       id="path1155" />
    <path
       d="m 106.6084,243.39144 c -3.86151,0 -7.72266,-0.002 -11.58382,0.003 -0.36759,7.9e-4 -0.66851,0.001 -0.65934,-0.514 0.007,-0.40852 0.12771,-0.60113 0.55633,-0.5655 0.26882,0.0226 0.54152,0.004 0.81245,0.004 7.46831,0 14.93696,-0.001 22.40562,0.005 0.2914,2.6e-4 0.6784,-0.13088 0.69921,0.40464 0.0229,0.58631 -0.0282,0.66287 -0.64664,0.66322 -3.86151,0.001 -7.72266,7.9e-4 -11.58381,7.9e-4"
       style="fill:#d9c196;fill-opacity:1;fill-rule:nonzero;stroke:none;stroke-width:0.03527778"
       id="path1159" />
    <path
       d="m 118.41164,226.87755 c -0.75742,-0.0141 -1.44428,0.11113 -2.13784,-0.30515 -3.03459,-1.82139 -6.10094,-3.59092 -9.14294,-5.40032 -0.42122,-0.25047 -0.73731,-0.24483 -1.15641,0.004 -3.11749,1.8489 -6.25051,3.671 -9.37471,5.50792 -0.62195,0.36547 -1.25836,0.16898 -1.90112,0.13582 0.33796,-0.40499 0.78951,-0.59761 1.20332,-0.84032 3.404309,-1.99496 6.81637,-3.97757 10.21856,-5.97676 0.3175,-0.18662 0.55951,-0.19579 0.88089,-0.006 3.70311,2.18934 7.41468,4.36422 11.12308,6.54368 0.0991,0.0586 0.21802,0.10054 0.28717,0.33725"
       style="fill:#d9c196;fill-opacity:1;fill-rule:nonzero;stroke:none;stroke-width:0.03527778"
       id="path1161" />
    <path
       d="m 106.59393,241.84521 c -3.2519,0 -6.50381,-0.006 -9.75572,0.007 -0.4639,0.002 -0.68685,-0.11324 -0.65934,-0.62583 0.0201,-0.37042 0.14641,-0.5214 0.51188,-0.51329 0.508,0.0116 1.01636,0.002 1.52471,0.002 6.06319,-2.7e-4 12.12674,-2.7e-4 18.18993,-0.001 0.34572,0 0.67839,-0.0423 0.6858,0.49178 0.007,0.4826 -0.14852,0.64981 -0.64029,0.6477 -3.28542,-0.0166 -6.57155,-0.009 -9.85697,-0.008"
       style="fill:#d9c196;fill-opacity:1;fill-rule:nonzero;stroke:none;stroke-width:0.03527778"
       id="path1163" />
    <path
       d="m 106.65073,228.7889 c 3.2706,0 6.5412,0.008 9.81146,-0.008 0.46178,-0.002 0.64523,0.13758 0.62124,0.60784 -0.0176,0.34184 -0.13829,0.49353 -0.48543,0.48577 -0.57573,-0.0123 -1.15217,-0.006 -1.7279,-0.006 -6.03215,-3.5e-4 -12.0643,0 -18.09609,-6.9e-4 -0.30339,0 -0.62618,0.0554 -0.65052,-0.41734 -0.0275,-0.53481 0.0582,-0.6544 0.61383,-0.65511 3.30447,-0.003 6.60929,-0.001 9.91341,-0.001 0,-10e-4 0,-0.003 0,-0.005"
       style="fill:#d9c196;fill-opacity:1;fill-rule:nonzero;stroke:none;stroke-width:0.03527778"
       id="path1167" />
  </g>
</svg>
