<?xml version="1.0" encoding="utf-8"?>


<svg version="1.1" id="Layer_1" xmlns="http://www.w3.org/2000/svg" xmlns:xlink="http://www.w3.org/1999/xlink" x="0px" y="0px"
	 viewBox="0 0 44.3 42" style="enable-background:new 0 0 44.3 42;" xml:space="preserve">
	  <style>
	 path , g{
		 fill:white;
	 }
	 path:hover{
		 fill:black
	 }
	 </style>
<g>
	<path d="M32.6,19.6c-0.1,0-0.2,0-0.3,0c-0.2,0-0.5,0.2-0.7,0.4c-0.2,0.3-0.3,0.6-0.4,1l-0.3,1.5c-0.4,1.8-0.7,3.5-1.1,5.3
		c-0.1,0.7-0.3,1.4-0.4,2l-0.1,0.7c0,0.5,0.2,0.9,0.6,0.9c0.1,0,0.2,0,0.3,0c0.3-0.1,0.6-0.3,0.6-0.5c0.2-0.1,0.3-0.4,0.3-0.6
		l0.3-1.5c0.1-0.6,0.3-1.2,0.4-1.8c0.1-0.6,0.2-1.1,0.3-1.7c0.3-1.6,0.7-3.3,1-4.9C33.2,20.1,33,19.7,32.6,19.6z"/>
	<path d="M27.9,28.6c-0.5-0.3-1-0.7-1.5-1l-0.5-0.3c-0.3-0.2-0.5-0.4-0.5-0.7c0-0.4,0.2-0.6,0.5-1c0.2-0.3,0.4-0.5,0.6-0.7
		c0.5-0.6,1-1.1,1.4-1.7c0.4-0.5,0.3-0.9,0.2-1.1c-0.1-0.2-0.3-0.4-0.8-0.3c-0.4,0.1-0.6,0.3-0.8,0.5c-0.3,0.3-0.5,0.6-0.8,0.9
		c-0.9,1-1.8,2.1-2.7,3.2c-0.3,0.4-0.4,0.9,0,1.2c1,0.7,1.9,1.3,2.9,2c0.3,0.2,0.5,0.4,0.8,0.6c0,0.1,0.2,0.1,0.2,0.1
		c0.2,0,0.3,0,0.5,0c0.5-0.1,0.8-0.5,0.9-0.9C28.3,29.2,28.3,28.9,27.9,28.6z"/>
	<path d="M39.4,22.4c-0.4-0.3-0.9-0.6-1.3-0.9c-0.6-0.5-1.2-0.9-1.8-1.3C36.1,20,36,20,35.8,19.9c-0.2,0-0.4,0-0.6,0
		c-0.4,0.1-0.8,0.5-0.9,1c0,0.2,0,0.5,0.4,0.8c0.4,0.3,0.9,0.6,1.3,0.9l0.4,0.4c0.4,0.2,0.7,0.4,0.7,0.8c0,0.4-0.3,0.7-0.7,1.2
		c-0.2,0.2-0.3,0.4-0.5,0.6c-0.5,0.5-0.9,1-1.3,1.5c-0.4,0.5-0.3,0.8-0.2,1c0.1,0.3,0.3,0.4,0.7,0.4c0.1,0,0.1,0,0.2,0
		c0.3-0.1,0.6-0.3,1-0.7c0.9-1,1.8-2.1,2.7-3.2l0.6-0.7c0.2-0.2,0.3-0.5,0.3-0.8C39.8,22.8,39.7,22.6,39.4,22.4z"/>
	<path d="M43.7,9.4c-0.4-0.2-0.8-0.5-1.2-0.7C37.2,5.8,31.9,2.9,26.6,0c-0.3-0.1-0.6-0.2-1-0.1C24.1,0.3,22.5,0.6,21,1
		C14.4,2.6,7.7,4.2,1.1,5.8C0.2,6,0.1,6.1,0.1,7c0,8,0,16.1,0,24.1c0,0.8,0.3,1.3,1,1.7c5.6,3,11.2,6.1,16.8,9.1
		c0.3,0.1,0.6,0.2,0.9,0.1c2.8-0.7,5.6-1.3,8.4-2c5.4-1.3,10.8-2.6,16.2-3.9c0.7-0.2,0.9-0.4,0.9-1.2c0-4,0-8.1,0-12.2s0-8.3,0-12.3
		C44.3,9.9,44.1,9.6,43.7,9.4z M17.2,39.8c-5-2.8-10-5.6-15.1-8.3c0,0-0.1,0-0.1-0.1l15.6-3.6c0,3.9,0,7.9,0,11.8
		C17.6,40,17.6,40,17.2,39.8z M18.2,15.2c-3.8-2.2-7.7-4.3-11.6-6.4C5.5,8.3,4.5,7.7,3.4,7.1C3.3,7,3.2,7,3.1,6.9
		c1.4-0.3,2.7-0.7,4-1C10.7,5,14.4,4.2,18,3.3c2.5-0.6,5-1.2,7.5-1.8c0.3-0.1,0.5,0,0.7,0.1C30,3.8,33.9,5.9,37.8,8
		c1,0.6,1.9,1.1,2.9,1.6c0.2,0.1,0.4,0.2,0.6,0.3c-1.1,0.3-2.1,0.6-3.1,0.8c-6.4,1.5-12.9,3.1-19.3,4.6
		C18.6,15.3,18.4,15.3,18.2,15.2z M42.7,22.9c0,3.8,0,7.5,0,11.4c0,0.3-0.1,0.4-0.4,0.5c-7.5,1.9-15.1,3.7-22.7,5.5
		c-0.3,0.1-0.4,0-0.4-0.3c0-7.6,0-15.1,0-22.7c0-0.3,0.1-0.4,0.4-0.5c6.1-1.5,12.2-2.9,18.3-4.4c1.5-0.4,2.9-0.7,4.4-1.1
		c0.4-0.1,0.4-0.1,0.4,0.3C42.7,15.3,42.7,19.1,42.7,22.9z"/>
</g>
</svg>
