<?xml version="1.0" encoding="utf-8"?>
<!-- Generator: Adobe Illustrator 21.0.0, SVG Export Plug-In . SVG Version: 6.00 Build 0)  -->
<svg version="1.1" id="Layer_1" xmlns="http://www.w3.org/2000/svg" xmlns:xlink="http://www.w3.org/1999/xlink" x="0px" y="0px"
	 viewBox="0 0 101.6 71.6" style="enable-background:new 0 0 101.6 71.6;" xml:space="preserve">
<g>
	<path d="M7.3,36.1H0V-0.1h7.3V36.1z"/>
	<path d="M22.4,36.1h-7.3V8.9h7.3V36.1z M22.4,0v4.7h-7V0H22.4z"/>
	<path d="M61,36.1H44.5c-7.9,0-11.9-2.4-11.9-7.2V15.7c0-4.6,3.3-6.9,10-6.9h18.2v4.7H45.6c-2.1,0-3.6,0.2-4.5,0.7s-1.3,1.4-1.3,2.8
		v10.8c0,2.4,2,3.6,6.1,3.6h15L61,36.1L61,36.1z"/>
	<path d="M75.4,36.1h-7.3V-0.2h7.3V36.1z M101.6,36.1h-9l-15.5-12c-0.9-0.6-1.3-1.2-1.3-1.8c0-0.6,0.5-1.3,1.4-2.1L91.9,9h8.7
		l-17,13.3L101.6,36.1z"/>
</g>
<g>
	<path d="M23.8,54.3h-9.6c-0.9,0-1.3,0.2-1.3,0.6v7.3c0,1.3,1.5,1.9,4.6,1.9h6.3c1.6,0,2.7-0.2,3.5-0.6c0.5-0.2,0.8-0.7,0.8-1.5
		v-5.7C28.1,55,26.7,54.3,23.8,54.3z"/>
	<path d="M58.1,54.7c-0.7-0.3-1.7-0.5-3-0.5h-6.2c-1.4,0-2.5,0.2-3.2,0.5c-0.9,0.3-1.3,0.8-1.3,1.5v6c0,0.7,0.4,1.1,1.3,1.5
		c0.7,0.3,1.6,0.4,2.8,0.4h7c1.2,0,2.1-0.1,2.7-0.4c0.8-0.3,1.2-0.8,1.2-1.4v-6.1C59.3,55.6,58.9,55,58.1,54.7z"/>
	<path d="M96.2,41.9H5.4c-3,0-5.4,2.4-5.4,5.4v19c0,3,2.4,5.4,5.4,5.4h90.8c3,0,5.4-2.4,5.4-5.4v-19C101.6,44.3,99.2,41.9,96.2,41.9
		z M33.3,62.7c0,2.7-2.7,4-8,4h-9.2c-2.4,0-4.4-0.3-6-1S7.6,64,7.6,62.6V46.8h5.2v5h12.5c2.4,0,4.4,0.4,5.8,1.1
		c1.4,0.7,2.1,1.7,2.1,2.9L33.3,62.7L33.3,62.7z M64.5,63c0,1.3-0.9,2.3-2.6,2.9c-1.2,0.5-3,0.8-5.5,0.8h-9.1c-2.8,0-4.9-0.3-6.2-1
		C39.7,65,39,64.1,39,63v-7.5c0-1.3,0.9-2.3,2.6-3c1.3-0.5,3.2-0.8,5.7-0.8h9.1c2.5,0,4.4,0.3,5.5,0.8c1.7,0.7,2.5,1.7,2.5,3V63
		H64.5z M89.3,66.7l-7.4-5.2l-7.4,5.2h-6.2L79.1,59L69,51.7h6.1l6.8,4.8l6.9-4.8H95L85,59l10.7,7.7H89.3z"/>
</g>
</svg>
