<?xml version="1.0" encoding="utf-8"?>
<!-- Generator: Adobe Illustrator 21.0.0, SVG Export Plug-In . SVG Version: 6.00 Build 0)  -->
<svg version="1.1" id="Layer_1" xmlns="http://www.w3.org/2000/svg" xmlns:xlink="http://www.w3.org/1999/xlink" x="0px" y="0px"
	 viewBox="0 0 172.3 71.6" style="enable-background:new 0 0 172.3 71.6;" xml:space="preserve">
	 
<style>
path , g{
	fill:lightgray;
}

</style>

<path  d="M63.3,10.9H26.1c-4.1,0-7,0.5-8.7,1.6c-2.1,1.5-3.2,3.5-3.2,6.1v33.6c0,3.4,0.9,5.7,2.8,7c1.9,1.3,5.2,2,9.8,2h36.4v10.4
	H21.5c-6.9,0-12.2-1.4-15.9-4.2C1.9,64.6,0,60.7,0,55.7V16.4C0,10.5,2,6.3,6,3.8c3.4-2.2,9-3.3,16.7-3.3h40.6V10.9z"/>
<g >
	<path d="M78,36.1h-7.3V-0.1H78V36.1z"/>
	<path d="M93.1,36.1h-7.3V8.9h7.3V36.1z M93.1,0v4.7h-7V0H93.1z"/>
	<path d="M131.7,36.1h-16.5c-7.9,0-11.9-2.4-11.9-7.2V15.7c0-4.6,3.3-6.9,10-6.9h18.2v4.7h-15.2c-2.1,0-3.6,0.2-4.5,0.7
		c-0.9,0.5-1.3,1.4-1.3,2.8v10.8c0,2.4,2,3.6,6.1,3.6h15V36.1z"/>
	<path d="M146.1,36.1h-7.3V-0.2h7.3V36.1z M172.3,36.1h-9l-15.5-12c-0.9-0.6-1.3-1.2-1.3-1.8c0-0.6,0.5-1.3,1.4-2.1L162.6,9h8.7
		l-17,13.3L172.3,36.1z"/>
</g>
<g >
	<g >
		<path d="M49.2,47.3c-0.1,0-0.2,0-0.3,0c-0.4,0-0.6-0.4-0.6-0.9l0.1-0.7c0.1-0.6,0.3-1.3,0.4-2c0.4-1.8,0.7-3.5,1.1-5.3l0.3-1.5
			c0.1-0.4,0.2-0.7,0.4-1c0.2-0.2,0.5-0.4,0.7-0.4c0.1,0,0.2,0,0.3,0c0.4,0.1,0.6,0.5,0.5,0.8c-0.3,1.6-0.7,3.3-1,4.9
			c-0.1,0.6-0.2,1.1-0.3,1.7c-0.1,0.6-0.3,1.2-0.4,1.8l-0.3,1.5c0,0.2-0.1,0.5-0.3,0.6C49.8,47,49.5,47.2,49.2,47.3z" />
		<path d="M46.4,46.2c-0.2,0-0.3,0-0.5,0c0,0-0.2,0-0.2-0.1c-0.3-0.2-0.5-0.4-0.8-0.6c-1-0.7-1.9-1.3-2.9-2c-0.4-0.3-0.3-0.8,0-1.2
			c0.9-1.1,1.8-2.2,2.7-3.2c0.3-0.3,0.5-0.6,0.8-0.9c0.2-0.2,0.4-0.4,0.8-0.5c0.5-0.1,0.7,0.1,0.8,0.3c0.1,0.2,0.2,0.6-0.2,1.1
			c-0.4,0.6-0.9,1.1-1.4,1.7c-0.2,0.2-0.4,0.4-0.6,0.7c-0.3,0.4-0.5,0.6-0.5,1c0,0.3,0.2,0.5,0.5,0.7l0.5,0.3c0.5,0.3,1,0.7,1.5,1
			c0.4,0.3,0.4,0.6,0.4,0.8C47.2,45.7,46.9,46.1,46.4,46.2z"/>
		<path d="M54.3,44.4c-0.1,0-0.1,0-0.2,0c-0.4,0-0.6-0.1-0.7-0.4c-0.1-0.2-0.2-0.5,0.2-1c0.4-0.5,0.8-1,1.3-1.5
			c0.2-0.2,0.3-0.4,0.5-0.6c0.4-0.5,0.7-0.8,0.7-1.2c0-0.4-0.3-0.6-0.7-0.8L55,38.5c-0.4-0.3-0.9-0.6-1.3-0.9
			c-0.4-0.3-0.4-0.6-0.4-0.8c0.1-0.5,0.5-0.9,0.9-1c0.2,0,0.4,0,0.6,0c0.2,0.1,0.3,0.1,0.5,0.3c0.6,0.4,1.2,0.8,1.8,1.3
			c0.4,0.3,0.9,0.6,1.3,0.9c0.3,0.2,0.4,0.4,0.5,0.7c0,0.3-0.1,0.6-0.3,0.8l-0.6,0.7c-0.9,1.1-1.8,2.2-2.7,3.2
			C54.9,44.1,54.6,44.3,54.3,44.4z"/>
	</g>
	<polygon points="36.7,43.7 20.3,47.5 20.3,23.5 36.7,32.4 	"/>
	<path d="M63.3,38.6c0,4.1,0,8.2,0,12.2c0,0.8-0.2,1-0.9,1.2c-5.4,1.3-10.8,2.6-16.2,3.9c-2.8,0.7-5.6,1.3-8.4,2
		c-0.3,0.1-0.6,0-0.9-0.1c-5.6-3-11.2-6.1-16.8-9.1c-0.7-0.4-1-0.9-1-1.7c0-8,0-16.1,0-24.1c0-0.9,0.1-1,1-1.2
		c6.6-1.6,13.3-3.2,19.9-4.8c1.5-0.4,3.1-0.7,4.6-1.1c0.4-0.1,0.7,0,1,0.1c5.3,2.9,10.6,5.8,15.9,8.7c0.4,0.2,0.8,0.5,1.2,0.7
		c0.4,0.2,0.6,0.5,0.6,1C63.3,30.3,63.3,34.5,63.3,38.6z M61.7,38.8c0-3.8,0-7.6,0-11.3c0-0.4,0-0.4-0.4-0.3
		c-1.5,0.4-2.9,0.7-4.4,1.1c-6.1,1.5-12.2,2.9-18.3,4.4c-0.3,0.1-0.4,0.2-0.4,0.5c0,7.6,0,15.1,0,22.7c0,0.3,0.1,0.4,0.4,0.3
		c7.6-1.8,15.2-3.6,22.7-5.5c0.3-0.1,0.4-0.2,0.4-0.5C61.7,46.3,61.7,42.6,61.7,38.8z M20.7,35.5c0,3.7,0,7.5,0,11.2
		c0,0.3,0.1,0.5,0.4,0.7c5.1,2.7,10.1,5.5,15.1,8.3c0.4,0.2,0.4,0.2,0.4-0.2c0-7.5,0-15,0-22.5c0-0.3-0.1-0.5-0.4-0.6
		c-1.7-0.9-3.4-1.9-5.1-2.8c-3.3-1.8-6.7-3.6-10-5.5c-0.4-0.2-0.4-0.2-0.4,0.2C20.7,28,20.7,31.8,20.7,35.5z M22.1,22.8
		c0.1,0.1,0.2,0.1,0.3,0.2c1.1,0.6,2.1,1.2,3.2,1.7c3.9,2.1,7.8,4.2,11.6,6.4c0.2,0.1,0.4,0.1,0.7,0.1c6.4-1.5,12.9-3.1,19.3-4.6
		c1-0.2,2-0.5,3.1-0.8c-0.2-0.1-0.4-0.2-0.6-0.3c-1-0.5-1.9-1-2.9-1.6c-3.9-2.1-7.8-4.2-11.6-6.4c-0.2-0.1-0.4-0.2-0.7-0.1
		c-2.5,0.6-5,1.2-7.5,1.8c-3.6,0.9-7.3,1.7-10.9,2.6C24.8,22.1,23.5,22.5,22.1,22.8z"/>
</g>
<g >
	<path d="M94.5,54.3h-9.6c-0.9,0-1.3,0.2-1.3,0.6v7.3c0,1.3,1.5,1.9,4.6,1.9h6.3c1.6,0,2.7-0.2,3.5-0.6c0.5-0.2,0.8-0.7,0.8-1.5
		v-5.7C98.8,55,97.4,54.3,94.5,54.3z"/>
	<path d="M128.8,54.7c-0.7-0.3-1.7-0.5-3-0.5h-6.2c-1.4,0-2.5,0.2-3.2,0.5c-0.9,0.3-1.3,0.8-1.3,1.5v6c0,0.7,0.4,1.1,1.3,1.5
		c0.7,0.3,1.6,0.4,2.8,0.4h7c1.2,0,2.1-0.1,2.7-0.4c0.8-0.3,1.2-0.8,1.2-1.4v-6.1C130,55.6,129.6,55,128.8,54.7z"/>
	<path d="M166.9,41.9H76.1c-3,0-5.4,2.4-5.4,5.4v19c0,3,2.4,5.4,5.4,5.4h90.8c3,0,5.4-2.4,5.4-5.4v-19
		C172.3,44.3,169.9,41.9,166.9,41.9z M104,62.7c0,2.7-2.7,4-8,4h-9.2c-2.4,0-4.4-0.3-6-1c-1.6-0.7-2.5-1.7-2.5-3.1V46.8h5.2v5h12.5
		c2.4,0,4.4,0.4,5.8,1.1c1.4,0.7,2.1,1.7,2.1,2.9V62.7z M135.2,63c0,1.3-0.9,2.3-2.6,2.9c-1.2,0.5-3,0.8-5.5,0.8h-9.1
		c-2.8,0-4.9-0.3-6.2-1c-1.4-0.7-2.1-1.6-2.1-2.7v-7.5c0-1.3,0.9-2.3,2.6-3c1.3-0.5,3.2-0.8,5.7-0.8h9.1c2.5,0,4.4,0.3,5.5,0.8
		c1.7,0.7,2.5,1.7,2.5,3V63z M160,66.7l-7.4-5.2l-7.4,5.2h-6.2l10.8-7.7l-10.1-7.3h6.1l6.8,4.8l6.9-4.8h6.2l-10,7.3l10.7,7.7H160z"
		/>
</g>

</svg>
