<?xml version="1.0" encoding="utf-8"?>
<!-- Generator: Adobe Illustrator 21.0.0, SVG Export Plug-In . SVG Version: 6.00 Build 0)  -->
<svg version="1.1" id="Layer_1" xmlns="http://www.w3.org/2000/svg" xmlns:xlink="http://www.w3.org/1999/xlink" x="0px" y="0px"
	 viewBox="0 0 101.6 36.1" style="enable-background:new 0 0 101.6 36.1;" xml:space="preserve">
<g>
	<path d="M7.3,36.1H0V-0.1h7.3V36.1z"/>
	<path d="M22.4,36.1h-7.3V8.9h7.3V36.1z M22.4,0v4.7h-7V0H22.4z"/>
	<path d="M61,36.1H44.5c-7.9,0-11.9-2.4-11.9-7.2V15.7c0-4.6,3.3-6.9,10-6.9h18.2v4.7H45.6c-2.1,0-3.6,0.2-4.5,0.7s-1.3,1.4-1.3,2.8
		v10.8c0,2.4,2,3.6,6.1,3.6h15L61,36.1L61,36.1z"/>
	<path d="M75.4,36.1h-7.3V-0.2h7.3V36.1z M101.6,36.1h-9l-15.5-12c-0.9-0.6-1.3-1.2-1.3-1.8c0-0.6,0.5-1.3,1.4-2.1L91.9,9h8.7
		l-17,13.3L101.6,36.1z"/>
</g>
</svg>
