<?xml version="1.0" encoding="utf-8"?>
<!-- Generator: Adobe Illustrator 21.0.0, SVG Export Plug-In . SVG Version: 6.00 Build 0)  -->
<svg version="1.1" id="Layer_1" xmlns="http://www.w3.org/2000/svg" xmlns:xlink="http://www.w3.org/1999/xlink" x="0px" y="0px"
	 viewBox="0 0 101.6 29.7" style="enable-background:new 0 0 101.6 29.7;" xml:space="preserve">
<g>
	<path d="M23.8,12.4h-9.6c-0.9,0-1.3,0.2-1.3,0.6v7.3c0,1.3,1.5,1.9,4.6,1.9h6.3c1.6,0,2.7-0.2,3.5-0.6c0.5-0.2,0.8-0.7,0.8-1.5
		v-5.7C28.1,13.1,26.7,12.4,23.8,12.4z"/>
	<path d="M58.1,12.8c-0.7-0.3-1.7-0.5-3-0.5h-6.2c-1.4,0-2.5,0.2-3.2,0.5c-0.9,0.3-1.3,0.8-1.3,1.5v6c0,0.7,0.4,1.1,1.3,1.5
		c0.7,0.3,1.6,0.4,2.8,0.4h7c1.2,0,2.1-0.1,2.7-0.4c0.8-0.3,1.2-0.8,1.2-1.4v-6.1C59.3,13.7,58.9,13.1,58.1,12.8z"/>
	<path d="M96.2,0H5.4C2.4,0,0,2.4,0,5.4v19c0,3,2.4,5.4,5.4,5.4h90.8c3,0,5.4-2.4,5.4-5.4v-19C101.6,2.4,99.2,0,96.2,0z M33.3,20.8
		c0,2.7-2.7,4-8,4h-9.2c-2.4,0-4.4-0.3-6-1s-2.5-1.7-2.5-3.1V4.9h5.2v5h12.5c2.4,0,4.4,0.4,5.8,1.1c1.4,0.7,2.1,1.7,2.1,2.9
		L33.3,20.8L33.3,20.8z M64.5,21.1c0,1.3-0.9,2.3-2.6,2.9c-1.2,0.5-3,0.8-5.5,0.8h-9.1c-2.8,0-4.9-0.3-6.2-1
		c-1.4-0.7-2.1-1.6-2.1-2.7v-7.5c0-1.3,0.9-2.3,2.6-3c1.3-0.5,3.2-0.8,5.7-0.8h9.1c2.5,0,4.4,0.3,5.5,0.8c1.7,0.7,2.5,1.7,2.5,3v7.5
		H64.5z M89.3,24.8l-7.4-5.2l-7.4,5.2h-6.2l10.8-7.7L69,9.8h6.1l6.8,4.8l6.9-4.8H95l-10,7.3l10.7,7.7H89.3z"/>
</g>
</svg>
