<?xml version="1.0" standalone="no"?>
<!DOCTYPE svg PUBLIC "-//W3C//DTD SVG 20010904//EN"
 "http://www.w3.org/TR/2001/REC-SVG-20010904/DTD/svg10.dtd">
<svg version="1.0" xmlns="http://www.w3.org/2000/svg"
 width="596.000000pt" height="240.000000pt" viewBox="0 0 596.000000 240.000000"
 preserveAspectRatio="xMidYMid meet">
 <style>
 path,g{

 fill:rgba(221, 162, 53, 0.904);
 }
 </style>
<metadata>
Created by potrace 1.15, written by Peter Selinger 2001-2017
</metadata>
<g transform="translate(0.000000,240.000000) scale(0.100000,-0.100000)"
fill="#000000" stroke="none">
<path d="M807 2219 c-64 -13 -145 -50 -183 -85 -76 -71 -74 -227 4 -283 97
-69 222 -96 364 -79 106 13 110 13 128 21 32 13 162 48 166 45 8 -9 -28 -152
-57 -226 -52 -132 -170 -338 -238 -414 -3 -4 -42 4 -86 19 -159 52 -416 28
-584 -56 -120 -59 -173 -118 -186 -204 -9 -56 6 -105 43 -140 31 -29 125 -71
198 -87 50 -11 188 -16 214 -7 33 11 517 79 540 76 20 -3 24 -9 22 -29 -2 -14
-9 -31 -16 -37 -16 -17 -154 -46 -366 -78 -178 -26 -331 -52 -363 -61 -81 -24
162 -56 423 -55 l155 1 -25 -20 c-68 -56 -225 -110 -316 -110 -47 0 -94 -14
-94 -29 0 -19 73 -34 145 -28 97 7 215 55 332 133 l95 63 297 6 c390 8 544 -9
671 -75 70 -37 130 -54 143 -41 21 21 -5 44 -111 97 -124 63 -318 128 -456
155 -55 11 -174 24 -262 28 -89 5 -167 11 -173 15 -16 11 -13 42 6 62 18 17
77 17 262 -2 96 -10 76 13 -55 64 -208 81 -239 102 -289 195 l-18 34 64 79
c35 43 79 103 98 132 36 57 49 62 77 31 21 -23 23 -17 -47 -128 -47 -75 -48
-142 -3 -198 35 -43 84 -58 84 -26 1 32 38 102 86 161 26 31 54 73 63 92 21
47 21 47 31 30 13 -20 12 -88 -3 -190 l-13 -85 31 -25 c16 -13 32 -27 35 -30
3 -3 12 -7 20 -9 54 -14 61 -12 105 23 25 21 45 36 45 34 0 -2 35 29 78 70 91
85 197 161 232 164 22 3 25 -1 28 -32 2 -20 -8 -64 -23 -104 -28 -74 -27 -93
11 -143 52 -69 128 -49 239 63 53 52 74 92 60 113 -12 21 -30 10 -102 -64 -45
-47 -80 -75 -93 -75 -23 0 -23 1 21 65 37 55 48 103 42 174 -6 59 -5 61 21 71
18 7 26 16 24 28 -5 29 -77 28 -207 -5 -22 -5 -24 -4 -18 23 8 42 139 348 204
479 61 123 122 212 182 268 23 20 41 42 41 47 0 21 -58 8 -109 -23 -140 -89
-252 -243 -427 -589 -140 -277 -280 -498 -237 -375 18 50 12 124 -13 162 -27
42 -65 55 -154 55 -63 0 -93 5 -140 25 -33 14 -68 25 -78 25 -10 0 -21 3 -24
6 -4 3 10 51 29 107 l36 102 -7 141 -6 142 55 22 c30 12 57 21 61 20 4 -1 10
2 13 8 13 19 244 106 316 118 11 2 40 8 65 13 25 6 79 11 120 11 162 3 226 27
138 51 -29 8 -99 10 -218 6 -188 -6 -242 -16 -490 -92 l-115 -35 -60 61 c-69
70 -149 115 -244 135 -74 15 -181 17 -254 3z m305 -77 c48 -24 125 -95 121
-112 -2 -6 2 -10 7 -10 22 0 8 -31 -17 -41 -41 -16 -235 -56 -335 -69 -75 -10
-95 -9 -144 5 -111 32 -135 68 -89 134 62 90 143 122 300 118 91 -2 118 -6
157 -25z m-327 -962 c3 -5 12 -7 20 -3 9 3 21 1 28 -5 6 -5 19 -9 28 -9 9 0
31 -6 48 -13 31 -12 31 -13 14 -33 -30 -33 -177 -144 -248 -188 -130 -79 -278
-125 -358 -112 -57 9 -117 64 -117 107 0 37 43 100 92 138 68 52 196 102 308
121 50 9 179 7 185 -3z"/>
<path d="M3320 2190 c-156 -19 -357 -129 -430 -235 -77 -113 -127 -277 -116
-388 8 -89 16 -115 50 -182 88 -172 204 -270 396 -336 52 -17 98 -35 102 -38
21 -18 -301 -371 -337 -371 -9 0 -46 16 -84 35 -65 34 -111 45 -111 26 0 -9
69 -75 110 -104 17 -12 21 -20 13 -23 -43 -19 -163 -106 -163 -119 0 -38 118
-1 238 76 20 12 24 12 32 -1 5 -8 10 -11 10 -6 0 4 11 1 25 -8 14 -9 25 -14
25 -11 0 4 12 0 28 -8 31 -17 130 -57 152 -62 8 -2 62 -15 120 -29 242 -58
478 -61 815 -10 192 29 241 33 345 34 134 0 268 -22 398 -65 110 -37 146 -43
140 -22 -11 32 -192 119 -349 169 -83 26 -34 25 -954 17 -377 -4 -441 -2 -522
13 -93 18 -143 35 -143 49 0 5 49 51 108 103 59 52 149 141 198 198 95 108
107 117 246 171 48 19 107 49 132 66 l46 30 0 -45 c0 -79 45 -136 120 -153 46
-10 98 -4 137 17 27 15 47 7 68 -24 20 -31 58 -46 92 -38 14 4 56 35 93 70
l67 64 6 -36 c8 -45 33 -74 64 -74 30 0 54 12 123 65 79 60 78 60 77 21 -2
-88 68 -113 142 -50 l42 37 52 -27 c98 -49 207 -32 292 46 61 56 80 60 88 18
12 -60 132 -108 220 -88 54 12 120 50 144 84 14 18 35 30 74 38 47 11 54 16
54 37 0 21 -5 24 -35 24 l-35 0 -6 57 c-11 103 -73 167 -148 153 -96 -18 -271
-144 -271 -195 0 -39 -8 -18 -19 49 -12 72 -43 121 -90 141 -26 10 -39 10 -83
-5 -56 -18 -123 -53 -175 -93 -21 -16 -49 -57 -79 -118 -49 -100 -86 -142 -92
-104 -4 24 70 181 156 330 l60 105 243 5 c219 4 244 7 247 22 2 12 -8 20 -37
28 -61 16 -178 29 -267 30 -102 0 -144 8 -144 27 0 22 52 147 111 268 44 87
69 125 133 192 86 91 91 115 18 90 -58 -20 -129 -75 -198 -154 -83 -96 -103
-123 -173 -248 -65 -115 -101 -158 -126 -149 -8 4 -15 10 -15 14 0 22 57 166
105 265 44 90 66 123 124 182 67 67 87 103 59 103 -25 -1 -94 -38 -146 -79
l-53 -42 -77 46 c-122 73 -191 90 -357 90 -154 0 -217 -13 -379 -79 l-84 -34
-78 34 c-202 88 -418 132 -564 114z m1285 -115 c67 -18 144 -57 175 -90 l20
-22 -29 -40 c-41 -57 -78 -67 -215 -60 -160 8 -393 63 -435 102 -11 11 -5 18
33 40 59 34 135 63 182 69 20 3 39 7 42 10 11 12 170 5 227 -9z m-982 -80
c146 -25 220 -75 172 -115 -13 -11 -30 -9 -103 14 -143 43 -306 34 -427 -24
-101 -49 -189 -162 -202 -259 -5 -38 -4 -41 18 -41 19 0 31 13 59 67 19 37 59
92 90 124 48 49 67 60 131 80 97 30 200 30 289 1 100 -34 98 -27 42 -133 -27
-52 -97 -186 -154 -299 -138 -269 -174 -330 -197 -330 -35 0 -156 42 -224 78
-90 47 -164 129 -225 251 -46 91 -47 97 -47 185 0 82 3 98 32 159 60 126 198
239 318 258 71 11 325 2 428 -16z m475 -165 c54 -16 121 -34 151 -40 30 -6 56
-12 58 -14 2 -1 -4 -20 -12 -40 -22 -53 -11 -100 36 -147 39 -39 114 -69 171
-69 23 0 28 -4 28 -24 0 -42 -182 -386 -204 -386 -3 0 0 15 5 32 12 44 12 165
-1 173 -14 8 -116 24 -201 32 -57 5 -74 2 -122 -20 l-55 -25 16 36 c11 25 16
66 16 127 0 77 -4 99 -28 155 -43 99 -44 121 -5 185 18 30 37 55 42 55 5 0 52
-13 105 -30z m-201 -236 c24 -64 24 -151 1 -224 -17 -55 -30 -74 -87 -130 -63
-62 -205 -150 -218 -136 -15 15 262 539 281 533 5 -2 16 -21 23 -43z"/>
<path d="M3850 714 c-189 -28 -271 -35 -423 -38 -103 -1 -190 -6 -194 -9 -8
-8 26 -40 47 -45 8 -2 40 -8 70 -14 30 -5 66 -13 79 -16 25 -7 371 1 646 15
190 9 507 10 552 1 18 -4 50 -12 70 -17 21 -6 54 -11 73 -11 l35 1 -27 23
c-33 29 -161 80 -288 114 -79 21 -121 25 -250 28 -134 2 -187 -2 -390 -32z"/>
</g>
</svg>
