<?xml version="1.0" encoding="UTF-8" standalone="no"?>
<svg
   xmlns:dc="http://purl.org/dc/elements/1.1/"
   xmlns:cc="http://creativecommons.org/ns#"
   xmlns:rdf="http://www.w3.org/1999/02/22-rdf-syntax-ns#"
   xmlns:svg="http://www.w3.org/2000/svg"
   xmlns="http://www.w3.org/2000/svg"
   id="svg1681"
   version="1.1"
   viewBox="0 0 183.34889 183.18182"
   height="183.18182mm"
   width="183.34889mm">
  <defs
     id="defs1675" />
  <metadata
     id="metadata1678">
    <rdf:RDF>
      <cc:Work
         rdf:about="">
        <dc:format>image/svg+xml</dc:format>
        <dc:type
           rdf:resource="http://purl.org/dc/dcmitype/StillImage" />
        <dc:title></dc:title>
      </cc:Work>
    </rdf:RDF>
  </metadata>
  <g
     transform="translate(-10.757153,-20.638884)"
     id="layer1">
    <path
       d="m 94.839652,190.74471 c -2.2917,-0.0495 -5.14209,0.0481 -7.99122,-0.36355 -3.16202,-0.45736 -5.24597,-2.12831 -6.25311,-5.10413 -1.11103,-3.2849 -2.17262,-6.58755 -3.1557,-9.91174 -0.38891,-1.31877 -1.0971,-2.04341 -2.42094,-2.42851 -4.12104,-1.20605 -8.10648,-2.7744 -11.86013,-4.87735 -1.11609,-0.62581 -2.11437,-0.66636 -3.25833,-0.0442 -2.80859,1.52529 -5.6463,2.99988 -8.50049,4.44028 -3.969,2.00161 -6.79659,1.54936 -10.09798,-1.34538 -3.89552,-3.41415 -7.54531,-7.05884 -10.95561,-10.95562 -2.71738,-3.10629 -3.14177,-5.81734 -1.27066,-9.54563 1.49362,-2.97963 3.01763,-5.94529 4.60623,-8.87296 0.58656,-1.08062 0.56756,-1.97881 -0.0215,-3.04549 -2.10801,-3.82076 -3.83472,-7.8164 -5.00526,-12.02611 -0.37627,-1.35045 -1.18957,-2.00538 -2.47796,-2.38165 -3.1329,-0.91464 -6.25057,-1.88504 -9.35308,-2.89725 -3.35206,-1.09074 -5.34857,-3.29 -5.66656,-6.93595 -0.51689,-5.90856 -0.55108,-11.81201 0.003,-17.715474 0.31816,-3.40276 2.37026,-5.3955 5.44362,-6.438087 3.15444,-1.070489 6.33039,-2.083953 9.53044,-3.011267 1.3061,-0.377526 2.10295,-0.99576 2.47161,-2.355076 1.12493,-4.15268 2.83771,-8.082428 4.87606,-11.860131 0.65367,-1.212371 0.6448,-2.248637 -0.0108,-3.445819 -1.46827,-2.683153 -2.81114,-5.437266 -4.26167,-8.131839 -1.83688,-3.41034 -1.68743,-6.555912 0.79434,-9.662198 3.58641,-4.492213 7.69984,-8.438407 12.09323,-12.103387 2.60084,-2.168809 5.51203,-2.491859 8.5651,-0.927315 3.08729,1.581028 6.1847,3.145572 9.24161,4.78359 1.00334,0.537147 1.8445,0.557401 2.85797,0.01436 3.96142,-2.129559 8.06091,-3.957614 12.40869,-5.156052 1.2225,-0.338276 1.74446,-1.138899 2.08396,-2.249895 0.97547,-3.184822 1.99399,-6.358261 2.99733,-9.535506 1.08062,-3.41666 3.37867,-5.207979 6.9765,-5.609565 5.3676,-0.600493 10.73775,-0.411712 16.100248,-0.217976 4.67973,0.169856 6.75859,1.963617 8.23573,6.502693 0.94886,2.909928 1.92181,5.813535 2.78327,8.747523 0.41045,1.401117 1.23514,2.116883 2.60968,2.522276 3.98799,1.173085 7.84678,2.698379 11.47758,4.73924 1.18576,0.666353 2.22834,0.703125 3.44578,0.05207 2.93779,-1.570901 5.93136,-3.040427 8.90082,-4.553045 3.33813,-1.70262 6.40006,-1.34664 9.24665,1.128772 4.11217,3.576281 8.01531,7.345115 11.49025,11.561176 2.49312,3.022687 2.92005,6.136586 1.01727,9.614042 -1.59877,2.922604 -3.03662,5.932614 -4.6151,8.867859 -0.47254,0.879195 -0.51309,1.606381 -0.0287,2.475412 2.22709,3.994351 3.95887,8.202799 5.23711,12.591123 0.32427,1.118609 1.02107,1.673497 2.07633,2.000353 3.24821,1.003337 6.48751,2.038347 9.72174,3.08474 3.27352,1.05907 5.38786,3.144319 5.64505,6.715539 0.451,6.246764 0.65242,12.510034 -0.23809,18.727674 -0.41171,2.86687 -2.37407,4.67212 -5.11045,5.56015 -3.23423,1.04895 -6.46466,2.11689 -9.73563,3.04043 -1.42521,0.40159 -2.09663,1.19969 -2.51721,2.56914 -0.63723,2.07508 -1.51136,4.07669 -2.255,6.1201 -0.41552,1.14016 -0.9476,1.5937 -2.03834,0.63597 -4.18942,-3.68017 -8.39535,-7.34389 -12.60883,-10.99745 -0.78417,-0.67903 -0.58024,-1.45811 -0.32319,-2.24103 1.45559,-4.43648 2.08014,-9.04777 2.14981,-13.65525 0.11779,-7.621304 -1.22882,-15.053867 -4.49347,-22.002495 -8.20912,-17.473501 -21.92266,-27.962931 -41.01266,-30.486499 -28.364558,-3.74858 -53.613918,15.967275 -57.938898,43.44373 -4.34271,27.598124 13.61727,52.867774 39.69641,58.826964 8.6525,1.97881 17.268268,1.79512 25.794118,-0.6879 1.52275,-0.44464 2.45387,-0.21151 3.49645,1.04136 3.17344,3.8157 6.51537,7.49081 9.7648,11.24445 1.48981,1.7191 1.44295,1.91169 -0.67268,2.76047 -1.89265,0.75757 -3.79799,1.49359 -5.73625,2.1194 -1.14267,0.36991 -1.82806,0.97676 -2.18404,2.15236 -1.00459,3.31912 -2.08014,6.61671 -3.16834,9.90922 -1.12371,3.39892 -3.42682,5.14844 -7.07909,5.43856 -2.9885,0.23557 -5.969348,0.34474 -9.521568,0.34977"
       style="fill:#092140;fill-opacity:1;fill-rule:nonzero;stroke:none;stroke-width:0.12668395"
       id="path827" />
    <path
       d="m 174.32245,192.03436 c 4.34652,-0.0772 7.93674,-3.75364 7.83159,-8.02163 -0.10629,-4.34017 -3.78912,-7.93799 -8.02669,-7.84552 -4.33259,0.0962 -7.91904,3.77389 -7.83669,8.03682 0.0837,4.33894 3.74226,7.90506 8.03179,7.83033 z M 63.021732,109.52385 c -0.17596,-3.59783 0.42946,-7.07403 1.44166,-10.479314 0.80063,-2.69328 2.45893,-3.13921 4.49222,-1.14141 5.0458,4.957154 10.01814,9.990284 15.02344,14.987964 4.05008,4.04377 8.14958,4.05264 12.25414,0.007 2.32717,-2.2917 4.639148,-4.5961 6.925788,-6.92709 3.87146,-3.94493 3.95129,-8.062134 0.0912,-12.014684 -4.845648,-4.963468 -9.801528,-9.82053 -14.700388,-14.734618 -2.67684,-2.686961 -2.26513,-4.099496 1.45433,-5.081287 16.557608,-4.366813 32.908688,2.248638 41.643538,16.847691 5.19279,8.677854 4.66325,17.605258 -1.7381,26.061438 -1.15409,1.52526 -0.97292,2.19162 0.40284,3.37993 17.54069,15.16277 35.02687,30.39148 52.51431,45.61509 2.10169,1.82805 4.32752,3.56741 6.1619,5.64249 5.44107,6.15303 6.55465,13.25999 3.2862,20.69255 -3.20512,7.29067 -9.09212,11.13427 -17.14543,11.4269 -6.21002,0.22552 -11.23812,-2.24232 -15.2616,-6.85867 -9.37843,-10.76562 -18.72516,-21.56161 -28.09468,-32.33861 -7.27294,-8.36242 -14.56868,-16.70581 -21.82132,-25.08468 -0.68535,-0.79179 -1.19844,-0.92354 -2.01555,-0.24706 -11.262218,9.31763 -23.062808,6.57997 -33.083498,-2.38546 -8.17874,-7.31599 -11.71193,-16.60443 -11.83101,-27.37005"
       style="fill:#092140;fill-opacity:1;fill-rule:nonzero;stroke:none;stroke-width:0.12668395"
       id="path829" />
  </g>
</svg>
